# xmcd CD database file
#
# Track frame offsets:
#	151
#	15208
#	36786
#	58240
#	73681
#	95013
#	109295
#	125396
#	142827
#	164516
#	182197
#	198778
#	212116
#	228562
#	248433
#	266165
#
# Disc length: 3744 seconds
#
# Revision: 0
# Processed by: cddbd v1.4PL0 Copyright (c) Steve Scherf et al.
# Submitted via: CDex 1.50Beta7
#
DISCID=e30e9e10
DTITLE=John Denver - Country Guitar
DYEAR=1998
DGENRE=Country
TTITLE0=Annie's Song
TTITLE1=Sunshine On My Shoulders
TTITLE2=back hpme Again
TTITLE3=I'm Sorry
TTITLE4=Rocky Mountain High
TTITLE5=take Me Home, Country Roads
TTITLE6=Catypso
TTITLE7=Fly Away
TTITLE8=Sweet Surrender
TTITLE9=Looking For Space
TTITLE10=Like A Sad Song
TTITLE11=Perhaps Love
TTITLE12=Thank God I'm A Country Boy
TTITLE13=My Sweet Lady
TTITLE14=Some Days Are Diamonds (Some Days Are Stone)
TTITLE15=Shangai Breezes
EXTD=YEAR: 1998
EXTT0=
EXTT1=
EXTT2=
EXTT3=
EXTT4=
EXTT5=
EXTT6=
EXTT7=
EXTT8=
EXTT9=
EXTT10=
EXTT11=
EXTT12=
EXTT13=
EXTT14=
EXTT15=
PLAYORDER=
